<?xml version="1.0" encoding="utf-8"?>
<!-- Generator: Adobe Illustrator 24.2.1, SVG Export Plug-In . SVG Version: 6.00 Build 0)  -->
<svg version="1.1" id="Layer_1" xmlns="http://www.w3.org/2000/svg" xmlns:xlink="http://www.w3.org/1999/xlink" x="0px" y="0px"
	 viewBox="0 0 204.5 104.6" style="enable-background:new 0 0 204.5 104.6;" xml:space="preserve">
<style type="text/css">
	.st0{fill:#FF6D5A;}
</style>
<g>
	<path class="st0" d="M183.5,0c-9.8,0-18,6.7-20.3,15.8H134c-11.5,0-20.8,9.3-20.8,20.8c0,5.7-4.7,10.4-10.4,10.4h-4.2
		c-2.3-9.1-10.5-15.8-20.3-15.8c-9.8,0-18,6.7-20.3,15.8H41.3C39,37.9,30.8,31.2,21,31.2c-11.6,0-21,9.4-21,21c0,11.6,9.4,21,21,21
		c9.8,0,18-6.7,20.3-15.8H58c2.3,9.1,10.5,15.8,20.3,15.8c9.7,0,17.9-6.6,20.3-15.6h4.2c5.7,0,10.4,4.7,10.4,10.4
		c0,11.5,9.3,20.8,20.8,20.8h6.8c2.3,9.1,10.5,15.8,20.3,15.8c11.6,0,21-9.4,21-21c0-11.6-9.4-21-21-21c-9.8,0-18,6.7-20.3,15.8H134
		c-5.7,0-10.4-4.7-10.4-10.4c0-6.3-2.8-11.9-7.2-15.7c4.4-3.8,7.2-9.4,7.2-15.7c0-5.7,4.7-10.4,10.4-10.4h29.2
		c2.3,9.1,10.5,15.8,20.3,15.8c11.6,0,21-9.4,21-21C204.5,9.4,195.1,0,183.5,0z M21,62.8c-5.8,0-10.6-4.8-10.6-10.6
		S15.2,41.6,21,41.6s10.6,4.8,10.6,10.6S26.8,62.8,21,62.8z M78.3,62.8c-5.8,0-10.6-4.8-10.6-10.6s4.8-10.6,10.6-10.6
		s10.6,4.8,10.6,10.6S84.2,62.8,78.3,62.8z M161.1,73c5.8,0,10.6,4.8,10.6,10.6s-4.8,10.6-10.6,10.6s-10.6-4.8-10.6-10.6
		C150.5,77.7,155.3,73,161.1,73z M183.5,31.6c-5.8,0-10.6-4.8-10.6-10.6s4.8-10.6,10.6-10.6s10.6,4.8,10.6,10.6
		C194.1,26.8,189.4,31.6,183.5,31.6z"/>
</g>
</svg>
