<?xml version="1.0" encoding="utf-8"?>
<!-- Generator: Adobe Illustrator 25.0.1, SVG Export Plug-In . SVG Version: 6.00 Build 0)  -->
<svg version="1.1" id="Layer_1" xmlns="http://www.w3.org/2000/svg" xmlns:xlink="http://www.w3.org/1999/xlink" x="0px" y="0px"
	 viewBox="0 0 2216.7 480.9" style="enable-background:new 0 0 2216.7 480.9;" xml:space="preserve">
<style type="text/css">
	.st0{fill:#FFFFFF;}
	.st1{fill:url(#SVGID_1_);}
	.st2{fill:url(#SVGID_2_);}
	.st3{fill:url(#SVGID_3_);}
	.st4{fill:url(#SVGID_4_);}
	.st5{fill:url(#SVGID_5_);}
	.st6{fill:url(#SVGID_6_);}
</style>
<g>
	<path d="M527.3,433c-89.7,0-134.6-47.2-134.6-141.5c0-50.7,11.3-87.4,34-110.1c22.6-22.6,56.2-34,100.6-34c44.4,0,78,11.3,100.6,34
		c22.6,22.7,34,59.3,34,110.1C661.9,385.9,617.1,433,527.3,433z M527.3,383.6c26.1,0,45.2-7.5,57.4-22.6
		c12.2-15.1,18.3-38.2,18.3-69.5c0-34.7-6.1-59.1-18.3-73.3c-12.2-14.2-31.3-21.3-57.4-21.3c-26.1,0-45.2,7.1-57.4,21.3
		c-12.2,14.2-18.3,38.6-18.3,73.3c0,31.3,6.1,54.4,18.3,69.5C482.1,376,501.2,383.6,527.3,383.6z"/>
	<path d="M702.4,428.7V151.8h58.1V384h136.3v44.7H702.4z"/>
	<path d="M944,428.7V326.4l-99.3-174.6h60.6l67.9,125.1l67.9-125.1h60.2l-99.3,174.6v102.3H944z"/>
	<path d="M1133.2,428.7V151.8h116.1c41.6,0,72.9,10.7,94,32c21.1,21.4,31.6,57.3,31.6,107.7c0,47.6-10.4,82.4-31.2,104.3
		c-20.8,21.9-52.2,32.9-94.4,32.9H1133.2z M1191.3,384h49.9c16.3,0,30.1-2.5,41.3-7.5c11.2-5,19.6-14.2,25.2-27.5s8.4-32.5,8.4-57.4
		s-2.6-44-7.7-57.2c-5.2-13.2-13.2-22.2-24.1-27.1c-10.9-4.9-25.2-7.3-43-7.3h-49.9V384z"/>
	<path d="M1541.3,433c-89.7,0-134.6-47.2-134.6-141.5c0-50.7,11.3-87.4,34-110.1c22.6-22.6,56.2-34,100.6-34
		c44.4,0,78,11.3,100.6,34c22.6,22.7,34,59.3,34,110.1C1675.9,385.9,1631.1,433,1541.3,433z M1541.3,383.6
		c26.1,0,45.2-7.5,57.4-22.6c12.2-15.1,18.3-38.2,18.3-69.5c0-34.7-6.1-59.1-18.3-73.3c-12.2-14.2-31.3-21.3-57.4-21.3
		c-26.1,0-45.2,7.1-57.4,21.3c-12.2,14.2-18.3,38.6-18.3,73.3c0,31.3,6.1,54.4,18.3,69.5C1496.1,376,1515.2,383.6,1541.3,383.6z"/>
	<path d="M1851.4,433c-46.4,0-82-12.5-106.6-37.6c-24.7-25.1-37-59.3-37-102.6c0-45.9,12-81.6,35.9-107.1
		c23.9-25.5,59.7-38.3,107.3-38.3c16.6,0,31.6,1.2,44.9,3.7c13.3,2.4,25.9,5.8,37.6,10.1V212c-24.4-10-50.5-15.1-78.3-15.1
		c-31.5,0-54.2,7.9-67.9,23.7c-13.8,15.8-20.6,39.9-20.6,72.2c0,60.8,29.8,91.2,89.4,91.2c13.5,0,26.8-1.2,40-3.7
		c13.2-2.4,25.8-6.1,37.8-11v51.2c-11.8,3.7-24.3,6.7-37.6,9C1883,431.9,1868,433,1851.4,433z"/>
	<path d="M2060.4,433c-17.8,0-34.3-1.3-49.7-3.9c-15.3-2.6-28.6-6.3-39.8-11.2v-51.2c12.6,5.2,26.2,9.3,40.9,12.5
		c14.6,3.2,29,4.7,43,4.7c20.1,0,34.8-1.9,44.3-5.6c9.5-3.7,14.2-12.2,14.2-25.4c0-8.3-2-14.9-6-19.8c-4-4.9-11-9.2-20.9-13.1
		s-23.9-8.2-41.9-13.1c-29-8-49.3-18.1-61.1-30.1c-11.8-12-17.6-28.7-17.6-49.9c0-25.5,9.3-45.2,28-58.9
		c18.6-13.8,45.7-20.6,81.3-20.6c16.6,0,32.1,1.1,46.4,3.4c14.3,2.3,25.9,5,34.8,8.2v51.2c-23.5-8.9-48-13.3-73.5-13.3
		c-18.1,0-32.3,1.9-42.6,5.8c-10.3,3.9-15.5,12-15.5,24.3c0,7.2,1.9,12.9,5.6,17.2c3.7,4.3,10.1,8.2,19.1,11.6
		c9,3.4,21.7,7.3,38.1,11.6c22.6,6,40.1,13.2,52.5,21.5c12.3,8.3,20.9,17.8,25.6,28.4c4.7,10.6,7.1,22.5,7.1,35.7
		c0,24.1-9.2,43.4-27.5,58.1C2126.7,425.7,2098.5,433,2060.4,433z"/>
</g>
<linearGradient id="SVGID_1_" gradientUnits="userSpaceOnUse" x1="44.4013" y1="350.5292" x2="244.2553" y2="101.3821">
	<stop  offset="0" style="stop-color:#B90713"/>
	<stop  offset="1" style="stop-color:#FAA92B"/>
</linearGradient>
<path class="st1" d="M361.6,153.6c0-8.5-6.7-15.5-15.2-15.8c-1.5-4-3.1-7.8-5-11.6c-9.4-19.2-23.8-34.7-42.9-45.9
	c-13.9-8.2-30.7-13.4-50-15.7c-1.1-7.6-7.7-13.5-15.6-13.5c-7.5,0-13.8,5.2-15.4,12.3H73.5c-1.6-7-7.9-12.3-15.4-12.3
	c-8.7,0-15.8,7.1-15.8,15.8c0,7.5,5.2,13.8,12.3,15.4v105.2c-7,1.6-12.3,7.9-12.3,15.4c0,7.5,5.2,13.8,12.3,15.4v78.8
	c-7,1.6-12.3,7.9-12.3,15.4c0,7.5,5.2,13.8,12.3,15.4v69.6c-7,1.6-12.3,7.9-12.3,15.4c0,8.7,7.1,15.8,15.8,15.8
	c7.2,0,13.3-4.8,15.2-11.4h67.9c1.9,6.6,8,11.4,15.2,11.4c8.7,0,15.8-7.1,15.8-15.8c0-7.5-5.3-13.9-12.4-15.4v-70.2
	c5.9-1.3,10.5-5.9,11.9-11.7h52.2c26.8,0,50.3-5.3,69.9-15.8c3.7-2,7.3-4.1,10.7-6.4c2.7,2.1,6.1,3.4,9.8,3.4
	c8.7,0,15.8-7.1,15.8-15.8c0-3.1-0.9-5.9-2.4-8.3c4.4-5.2,8.4-10.9,11.8-17c10.7-18.8,16.1-40.6,16.1-64.8c0-8.1-0.6-16-1.6-23.6
	C358.5,164.4,361.6,159.4,361.6,153.6z M335.1,129.3c1.6,3.2,3,6.5,4.3,9.8c-5.3,2.4-9,7.6-9.3,13.7l-57.4,10.3
	c-2.4-5.6-8-9.6-14.5-9.6c-0.1,0-0.1,0-0.2,0L240.1,81c3.8-1.9,6.6-5.3,7.9-9.3c18.3,2.1,34,7,47,14.7
	C312.8,96.9,326.3,111.3,335.1,129.3z M257,190.2c0,10-1.8,18.7-5.5,26.2c-2.1-1-4.5-1.6-7-1.6c-8.7,0-15.8,7.1-15.8,15.8
	c0,2.3,0.5,4.4,1.3,6.4c-7.3,3.1-16.1,4.6-26.3,4.6h-32c-1.3-6.1-6-10.8-12-12.2v-80.2c6-1.3,10.7-6,12-12h34.8
	c17.4,0,30.3,4.6,38.3,13.6c1.5,1.7,2.9,3.6,4.2,5.6c-4.1,2.9-6.7,7.6-6.7,12.9c0,8.3,6.4,15.1,14.6,15.8
	C257,186.8,257,188.5,257,190.2z M61.6,397.5v-69.6c1.7-0.4,3.3-1,4.7-1.9l76.7,78.4c-1.1,1.7-1.9,3.7-2.3,5.8H73.6
	C72.6,403.9,67.8,398.9,61.6,397.5z M171.7,130.1c-0.3-1.4-0.8-2.7-1.5-3.9l53.5-46.5c2.6,1.9,5.8,3,9.3,3c0.1,0,0.1,0,0.2,0
	l15.1,61.4c-9.4-9.3-23.4-14-41.6-14H171.7z M72.7,196.9l72.9-51.4c1.9,1.8,4.3,3.1,7,3.7v80.3c-3.7,0.9-6.9,3.1-9.1,6.1l-69.9-29.9
	c0.2-0.9,0.2-1.8,0.2-2.8C73.9,200.7,73.4,198.7,72.7,196.9z M219,74.3l-53.5,46.6c-2.6-1.8-5.7-2.9-9.1-2.9
	c-4.1,0-7.9,1.6-10.7,4.2L72.8,72.6c0.3-0.7,0.5-1.4,0.7-2.2h144.1C217.8,71.8,218.3,73.1,219,74.3z M68.8,78.5l72.8,49.5
	c-0.7,1.8-1.1,3.7-1.1,5.8c0,2.1,0.4,4,1.1,5.8l-73,51.5c-2-1.7-4.3-3-7-3.6V82.3C64.3,81.6,66.8,80.3,68.8,78.5z M70.8,212.2
	l69.9,29.9c-0.2,0.9-0.2,1.8-0.2,2.8c0,2.1,0.4,4,1.1,5.8l-72.9,50.2c-2-1.8-4.4-3.1-7.1-3.7v-78.8
	C65.4,217.4,68.6,215.2,70.8,212.2z M148.1,399.4L71.4,321c1.6-2.5,2.5-5.4,2.5-8.5c0-2.1-0.4-4-1.1-5.8l72.9-50.2
	c2,1.8,4.4,3.1,7.1,3.7v36.1c-7,1.6-12.3,7.9-12.3,15.4c0,7.5,5.2,13.7,12.2,15.4v70.3C151,397.9,149.5,398.5,148.1,399.4z
	 M166,299.3c-1.8-1.4-3.9-2.4-6.1-2.9v-36.1c5.8-1.3,10.3-5.8,11.8-11.5h32.2c7.1,0,13.5-0.7,19.4-2.1L166,299.3z M290.4,293.5
	c-18.5,9.9-40.9,14.9-66.5,14.9h-52.1c-0.3-1.3-0.7-2.5-1.2-3.6l65.9-60.7c2.4,1.4,5.2,2.3,8.2,2.3c3.7,0,7.1-1.3,9.8-3.4l45.2,31.8
	c-0.8,1.8-1.2,3.9-1.2,6c0,2.5,0.6,4.8,1.6,6.9C296.9,289.8,293.7,291.7,290.4,293.5z M348.4,190.8c0,23-5.1,43.6-15.1,61.3
	c-3.1,5.5-6.7,10.7-10.7,15.4c-2.4-1.5-5.3-2.4-8.4-2.4c-4.1,0-7.7,1.5-10.5,4l-44.8-31.6c1-2.1,1.6-4.4,1.6-6.9
	c0-3.6-1.2-6.9-3.2-9.6c4.6-8.8,7-19.1,7-30.8c0-2.1-0.1-4.1-0.2-6.1c5.6-2.2,9.6-7.6,9.9-13.9l57.4-10.3c2.4,5.6,8,9.6,14.5,9.6
	c0.4,0,0.8,0,1.1,0C347.9,176.3,348.4,183.4,348.4,190.8z"/>
</svg>
