<?xml version="1.0" encoding="utf-8"?>
<!-- Generator: Adobe Illustrator 25.0.1, SVG Export Plug-In . SVG Version: 6.00 Build 0)  -->
<svg version="1.1" id="Layer_1" xmlns="http://www.w3.org/2000/svg" xmlns:xlink="http://www.w3.org/1999/xlink" x="0px" y="0px"
	 viewBox="0 0 1300 1300" style="enable-background:new 0 0 1300 1300;" xml:space="preserve">
<style type="text/css">
	.st0{fill:url(#SVGID_1_);}
	.st1{fill:url(#SVGID_2_);}
	.st2{fill:url(#SVGID_3_);}
	.st3{fill:url(#SVGID_4_);}
	.st4{fill:url(#SVGID_5_);}
	.st5{fill:#FFFFFF;}
	.st6{fill:url(#SVGID_6_);}
</style>
<linearGradient id="SVGID_1_" gradientUnits="userSpaceOnUse" x1="50.1498" y1="1019.7151" x2="713.455" y2="192.8088">
	<stop  offset="0" style="stop-color:#B90713"/>
	<stop  offset="1" style="stop-color:#FAA92B"/>
</linearGradient>
<path class="st0" d="M1103,366c0-28.3-22.4-51.4-50.4-52.4c-4.9-13.2-10.4-26-16.5-38.5c-31.1-63.8-79-115.1-142.3-152.5
	C847.7,95.4,792,78,727.8,70.6c-3.7-25.4-25.5-44.8-51.9-44.8c-24.9,0-45.8,17.4-51.1,40.7H146.6c-5.4-23.3-26.2-40.7-51.1-40.7
	c-29,0-52.5,23.5-52.5,52.5c0,24.9,17.4,45.8,40.7,51.1v349.1C60.3,483.8,43,504.6,43,529.6c0,24.9,17.4,45.8,40.7,51.1v261.6
	C60.3,847.7,43,868.6,43,893.5c0,24.9,17.4,45.8,40.7,51.1v230.9c-23.3,5.4-40.7,26.2-40.7,51.1c0,29,23.5,52.5,52.5,52.5
	c23.9,0,44-15.9,50.4-37.7h225.3c6.4,21.8,26.5,37.7,50.4,37.7c29,0,52.5-23.5,52.5-52.5c0-25.1-17.6-46-41-51.2V942.3
	c19.5-4.3,34.9-19.5,39.5-38.8h173.2c89,0,167.1-17.6,232-52.4c12.3-6.6,24.2-13.7,35.5-21.4c8.9,7,20.2,11.2,32.4,11.2
	c29,0,52.5-23.5,52.5-52.5c0-10.2-2.9-19.6-7.9-27.7c14.7-17.4,27.8-36.2,39.2-56.4c35.4-62.4,53.3-134.7,53.3-215
	c0-26.9-1.9-53-5.5-78.2C1092.6,402.1,1103,385.3,1103,366z M1014.9,285.4c5.2,10.6,9.9,21.5,14.2,32.7c-17.5,7.9-30,25.1-31,45.3
	l-190.4,34.3c-8-18.7-26.6-31.8-48.2-31.8c-0.2,0-0.5,0-0.7,0l-59.2-241c12.5-6.3,22.1-17.4,26.4-30.9c60.6,7.1,112.9,23.4,156,48.8
	C941.1,177.9,985.9,225.9,1014.9,285.4z M755.9,487.6c0,33.1-6.1,62.2-18.2,86.9c-7-3.4-14.8-5.3-23.1-5.3
	c-29,0-52.5,23.5-52.5,52.5c0,7.5,1.6,14.6,4.4,21.1c-24.2,10.2-53.4,15.4-87.3,15.4H472.9c-4.2-20.1-19.9-36-39.9-40.4V351.6
	c19.8-4.4,35.4-20,39.8-39.8h115.6c57.8,0,100.5,15.2,127,45.2c5.1,5.8,9.7,12,13.8,18.7c-13.4,9.5-22.2,25.2-22.2,42.9
	c0,27.6,21.3,50.3,48.4,52.3C755.7,476.3,755.9,481.9,755.9,487.6z M107.3,1175.5V944.6c5.6-1.3,10.8-3.4,15.5-6.3l254.6,260.1
	c-3.7,5.8-6.3,12.4-7.5,19.4H147.2C143.6,1196.9,127.7,1180.3,107.3,1175.5z M472.6,288.1c-1.1-4.6-2.8-8.9-5-12.9l177.4-154.5
	c8.7,6.3,19.3,10,30.8,10c0.2,0,0.5,0,0.7,0l50.1,203.8c-31.3-30.8-77.7-46.4-138.2-46.4H472.6z M144.1,509.8l242.1-170.7
	c6.5,5.9,14.4,10.2,23.2,12.3v266.5c-12.3,2.9-23,10.2-30.2,20.1l-232.1-99.2c0.5-3,0.8-6.1,0.8-9.2
	C147.9,522.6,146.6,515.9,144.1,509.8z M629.5,102.9L451.9,257.5c-8.6-6.1-19-9.7-30.3-9.7c-13.7,0-26.2,5.2-35.5,13.8L144.4,97.2
	c0.9-2.3,1.6-4.7,2.2-7.2h478.1C625.8,94.6,627.4,98.9,629.5,102.9z M131.1,116.8l241.6,164.4c-2.3,5.9-3.6,12.4-3.6,19.2
	c0,6.8,1.3,13.3,3.7,19.3L130.4,490.4c-6.5-5.8-14.4-10-23.2-12V129.4C116.3,127.3,124.5,122.9,131.1,116.8z M137.8,560.5
	l232.1,99.2c-0.5,3-0.8,6.1-0.8,9.2c0,6.8,1.3,13.3,3.7,19.3L130.9,854.8c-6.6-6-14.6-10.3-23.6-12.4V580.7
	C119.7,577.8,130.5,570.5,137.8,560.5z M394.2,1181.9L139.7,921.8c5.2-8.2,8.3-17.9,8.3-28.3c0-6.8-1.3-13.3-3.7-19.3l241.9-166.5
	c6.6,6,14.6,10.3,23.6,12.4V840c-23.3,5.4-40.7,26.2-40.7,51.1c0,24.8,17.2,45.6,40.3,51.1v233.4
	C404,1176.9,398.9,1179,394.2,1181.9z M453.7,849.7c-5.9-4.6-12.8-8-20.4-9.7V720.1c19.2-4.4,34.3-19.3,39.1-38.3h106.7
	c23.5,0,44.9-2.3,64.4-6.9L453.7,849.7z M866.6,830.3c-61.4,32.9-135.7,49.6-220.8,49.6H472.8c-0.9-4.2-2.3-8.1-4.1-11.9
	l218.8-201.3c7.9,4.8,17.2,7.5,27.1,7.5c12.2,0,23.5-4.2,32.4-11.2l149.9,105.7c-2.5,6.1-3.9,12.8-3.9,19.8c0,8.2,1.9,15.9,5.2,22.8
	C888.1,818.1,877.6,824.4,866.6,830.3z M1059,489.4c0,76.2-16.9,144.6-50.2,203.4c-10.4,18.3-22.2,35.4-35.4,51.2
	c-8.1-5.1-17.6-8-27.9-8c-13.4,0-25.7,5.1-35,13.4L761.9,644.6c3.3-6.9,5.2-14.6,5.2-22.8c0-11.9-4-22.9-10.7-31.7
	c15.4-29.1,23.1-63.3,23.1-102.3c0-7-0.2-13.7-0.6-20.4c18.6-7.4,32-25.2,33-46.2l190.4-34.3c8,18.7,26.6,31.8,48.2,31.8
	c1.3,0,2.5-0.1,3.8-0.2C1057.4,441.3,1059,465,1059,489.4z"/>
</svg>
